# xmcd
#
# Track frame offsets:
#	150
#	15894
#	41308
#	63047
#	79849
#	102180
#	120054
#	133703
#	151628
#	170156
#	202498
#	220193
#	236501
#	254822
#	270706
#
# Disc length: 3844
#
# Revision: 1
# Processed by: cddbd v1.5.1PL0 Copyright (c) Steve Scherf et al.
# Submitted via: dBpowerAMP V4.0
# Normalized: r0:TDELIM( - )
#
DISCID=c40f020f
DTITLE=Various Artist - Brown Sugar
DYEAR=2002
DGENRE=R&B
TTITLE0=Mos Def ft Faith Evans - Brown Sugar
TTITLE1=Erykah Badu Ft Common - Love Of My Life
TTITLE2=Angie Stone - Bring Your Heart
TTITLE3=Black Star - Brown Sugar (Raw)
TTITLE4=Jill Scott - Easy Conversation
TTITLE5=Blackalicious Ft Lateef - Its Going Down
TTITLE6=Mos Def - Breakdown
TTITLE7=Rahsaan Patterson - You Make Life So Good
TTITLE8=Cassandra Wilson - Time After Time
TTITLE9=Eric B And Rakim - Paid In Full
TTITLE10=Hi - Tek Ft Piakhan-No One Knows Her Name
TTITLE11=The Roots - Act Too (Love Of My Life Remix)
TTITLE12=Mary J. Blige - Never Been
TTITLE13=Mos Def - Brown Sugar (Fine)
TTITLE14=Jully Black - You Changed
EXTD=
EXTT0=
EXTT1=
EXTT2=
EXTT3=
EXTT4=
EXTT5=
EXTT6=
EXTT7=
EXTT8=
EXTT9=
EXTT10=
EXTT11=
EXTT12=
EXTT13=
EXTT14=
PLAYORDER=
